<?xml version="1.0" encoding="UTF-8"?>
<svg id="Layer_1" data-name="Layer 1" xmlns="http://www.w3.org/2000/svg" viewBox="0 0 379 40">
  <defs>
    <style>
      .cls-1 {
        fill: #fff;
      }

      .cls-2 {
        fill: #ff671d;
      }
    </style>
  </defs>
  <rect class="cls-2" width="379" height="40" rx="8.19" ry="8.19"/>
  <g>
    <path class="cls-1" d="m33.03,13.59c-.19-.28-2.81-4.16-7.35-4.16h-9.7c-3.15,0-5.72,2.57-5.72,5.72v10.68c0,.32-.5.13-.5.13-.11-.04-.24-.08-.4-.08-.52,0-.94.42-.94.94,0,1.11,1.75,1.59,2.44,1.59.21,0,.42-.02.61-.05,1.05,1.34,2.68,2.21,4.51,2.21h9.7c3.15,0,5.72-2.57,5.72-5.72v-5.85s1.19-1.5,1.31-1.66h0s.96-1.31,1.2-1.8c.21-.43,0-.66-.88-1.95"/>
    <path class="cls-2" d="m27.32,24.48c.2.06.42.1.69.1,1.03,0,1.52-.41,1.52-.9,0-.57-.77-.57-.85-1.07-.1-.63-.04-3.41,1.04-4.95l.72.33s.21.12.45.1c.16,0,.33-.08.49-.25.41-.44,1.53-1.86,1.89-2.6.09-.18-1.43-2.08-2.28-2.77-.58-.47-1.32-.75-2.13-.75-1.49,0-2.75.95-3.22,2.28-.95.68-2.85,1.77-4.83,2.29-2.33.61-4.74.04-6.38.12-2.11.11-3.36,1.65-3.31,3.44.05,1.82,1.3,3.47,1.3,5.18,0,1.34-1.09,1.93-1.84,1.93-.9,0-.95-.37-1.23-.37-.11,0-.24.09-.24.24,0,.45,1.11.88,1.74.88,1.68,0,2.38-1.2,2.38-1.2,0,0,.43,1.24,2.08,1.24,1.32,0,1.89-.63,1.89-1.16,0-.43-.26-.61-.45-.86-.26-.36-.25-.79-.25-.79,0,0,.29.05.72.05.96,0,1.26-.39,1.26-.77,0-.49-.58-.46-.58-1.27,0-.61.34-.81.64-.81.32,0,1.55.12,3.03.27.5.05,1.73.53,1.73,2.45v.69c0,1.17.47,2.62,2.54,2.62,1.4,0,2.19-.78,2.19-1.35,0-.37-.32-.53-.48-.75-.47-.66-.24-1.57-.24-1.57h0Z"/>
    <path class="cls-1" d="m30.73,16.1c-.13,0-.25.11-.25.24s.11.24.25.24.24-.11.24-.24-.11-.24-.24-.24"/>
    <path class="cls-1" d="m31.58,15.39c-.12,0-.22.1-.22.22s.1.22.22.22.22-.1.22-.22-.1-.22-.22-.22"/>
    <path class="cls-1" d="m31.97,14.57c-.1,0-.18.08-.18.18s.08.18.18.18.18-.08.18-.18-.08-.18-.18-.18"/>
    <path class="cls-1" d="m24.99,15.73c.15,0,.26-.12.26-.26s-.12-.26-.26-.26-.26.12-.26.26.12.26.26.26"/>
    <path class="cls-1" d="m26.01,22.1c-.14,0-.26.12-.26.26s.12.26.26.26.26-.12.26-.26-.12-.26-.26-.26"/>
    <path class="cls-1" d="m27.58,22.37c-.15,0-.26.12-.26.26s.12.26.26.26.26-.12.26-.26-.12-.26-.26-.26"/>
    <path class="cls-1" d="m26.22,19.71c-.15,0-.26.12-.26.26s.12.26.26.26.26-.12.26-.26-.12-.26-.26-.26"/>
    <path class="cls-1" d="m27.12,17.92c.15,0,.26-.12.26-.26s-.12-.26-.26-.26-.26.12-.26.26.12.26.26.26"/>
    <path class="cls-1" d="m23.01,16.86c.15,0,.26-.12.26-.26s-.12-.26-.26-.26-.26.12-.26.26.12.26.26.26"/>
    <path class="cls-1" d="m24.49,21.56c-.15,0-.26.12-.26.26s.12.26.26.26.26-.12.26-.26-.12-.26-.26-.26"/>
    <path class="cls-1" d="m23.76,18.16c.14,0,.26-.12.26-.26s-.12-.26-.26-.26-.26.12-.26.26.12.26.26.26"/>
    <path class="cls-1" d="m22.1,19.66c-.14,0-.26.12-.26.26s.12.26.26.26.26-.12.26-.26-.12-.26-.26-.26"/>
    <path class="cls-1" d="m24.82,19.37c.15,0,.26-.12.26-.26s-.12-.26-.26-.26-.26.12-.26.26.12.26.26.26"/>
    <path class="cls-1" d="m20.66,17.01c-.15,0-.26.12-.26.27s.12.26.26.26.26-.12.26-.26-.12-.27-.26-.27"/>
    <path class="cls-1" d="m21.23,18.38c-.15,0-.26.12-.26.26s.12.26.26.26.26-.12.26-.26-.12-.26-.26-.26"/>
    <path class="cls-1" d="m23.16,20.68c-.15,0-.26.12-.26.26s.12.26.26.26.26-.12.26-.26-.12-.26-.26-.26"/>
    <path class="cls-1" d="m25.87,16.95c.15,0,.26-.12.26-.26s-.12-.26-.26-.26-.26.12-.26.26.12.26.26.26"/>
    <path class="cls-1" d="m27.81,20.21c-.15,0-.26.12-.26.26s.12.26.26.26.26-.12.26-.26-.12-.26-.26-.26"/>
    <path class="cls-1" d="m28.47,18.06c-.15,0-.26.12-.26.26s.12.26.26.26.26-.12.26-.26-.12-.26-.26-.26"/>
    <path class="cls-1" d="m28.3,15.9c-.15,0-.26.12-.26.26s.12.26.26.26.26-.12.26-.26-.12-.26-.26-.26"/>
    <path class="cls-1" d="m29.55,16.3c-.15,0-.26.12-.26.26s.12.26.26.26.26-.12.26-.26-.12-.26-.26-.26"/>
    <path class="cls-1" d="m27.36,15.08c-.15,0-.26.12-.26.26s.12.26.26.26.26-.12.26-.26-.12-.26-.26-.26"/>
    <path class="cls-1" d="m26.84,14.09c-.14,0-.26.12-.26.26s.12.26.26.26.27-.12.27-.26-.12-.26-.27-.26"/>
    <path class="cls-1" d="m27.93,14.09c-.15,0-.26.12-.26.26s.12.26.26.26.26-.12.26-.26-.12-.26-.26-.26"/>
    <path class="cls-1" d="m26.69,13.37c0-.12.1-.22.22-.22s.22.1.22.22-.1.22-.22.22-.22-.1-.22-.22"/>
    <path class="cls-1" d="m27.34,12.57c0-.09.07-.16.17-.16s.16.07.16.16c0,.09-.07.17-.16.17s-.17-.07-.17-.17"/>
    <path class="cls-1" d="m28.19,12.19c0-.08.06-.15.15-.15s.15.07.15.15-.06.15-.15.15-.15-.06-.15-.15"/>
    <path class="cls-1" d="m31.81,14.01c0-.07.06-.13.13-.13s.13.06.13.13-.06.13-.13.13-.13-.06-.13-.13"/>
    <path class="cls-1" d="m31.62,16.64c0-.08.06-.15.14-.15.08,0,.15.06.15.14,0,.08-.06.15-.14.15-.08,0-.15-.06-.15-.14"/>
    <path class="cls-1" d="m31.99,16.13c0-.08.06-.15.14-.15.08,0,.15.06.15.14,0,.08-.06.15-.14.15-.08,0-.15-.06-.15-.14"/>
    <path class="cls-1" d="m31.23,17.14c0-.08.06-.15.14-.15.08,0,.15.06.15.14,0,.08-.06.15-.14.15-.08,0-.14-.06-.15-.14"/>
    <path class="cls-1" d="m30.78,17.62c0-.08.06-.15.14-.15.08,0,.15.06.15.14,0,.08-.06.15-.14.15-.08,0-.14-.06-.15-.14"/>
    <path class="cls-1" d="m32.34,15.63c0-.08.06-.15.14-.15.08,0,.15.06.15.14,0,.08-.06.15-.14.15-.08,0-.15-.06-.15-.14"/>
    <path class="cls-1" d="m32.6,15.18c0-.08.06-.15.14-.15.08,0,.15.06.15.14,0,.08-.06.15-.14.15-.08,0-.15-.06-.15-.14"/>
    <path class="cls-1" d="m16.16,26.31s-.96-1.66-.3-3.38c.74-1.89,2.85-1.64,2.85-1.64-.35-.15-.72-.23-1.12-.22-1.47.06-2.61,1.4-2.55,3,.03.93.47,1.73,1.11,2.24"/>
    <path class="cls-1" d="m12.6,21.01c-.41-.42-.67-.99-.67-1.62,0-1.26,1.03-2.22,2.29-2.29,1.3-.07,3.69.32,5.21.12.53,2.35,2.26,4.01,3.58,5.06-1.57-.7-3.15-2.56-4.97-3.57-1.9-1.05-3.81-1.21-4.81-.29-.86.79-.79,1.92-.64,2.58"/>
    <path class="cls-1" d="m17.98,23.38c.12.68-1.11.89-1.11.89,1.11.2,1.49-.39,1.49-.39-.07-.09-.38-.5-.38-.5"/>
    <path class="cls-1" d="m26.84,23.74h0s-.72,1.02-.23,2.89c-.3.29-.85.53-1.29.65,0,0,1.68.22,2.2-.68-1.01-.78-.71-2.74-.69-2.87"/>
    <path class="cls-1" d="m30.19,13.02c-.65-.12-1.26.22-1.36.77-.1.54.35,1.08,1,1.2.65.12,1.26-.23,1.36-.77.1-.54-.35-1.08-1-1.2m.82,1.15c-.07.38-.5.63-.97.54-.46-.08-.78-.47-.71-.85.07-.38.5-.63.97-.54.46.08.78.47.71.85"/>
    <path class="cls-1" d="m30.13,14.01c.04-.21.28-.35.53-.3.25.05.43.26.39.47-.04.21-.28.35-.54.3-.26-.05-.43-.26-.39-.47"/>
    <path class="cls-1" d="m28.76,22.82h0c.4.75-.89,1.02-.89,1.02.89.15,1.39-.39,1.39-.63-.17-.13-.38-.23-.5-.39"/>
    <path class="cls-1" d="m20.9,20.41s.17.2.45.48c.28.28.68.63,1.11.95.43.32.89.6,1.24.79.18.1.33.17.43.22.11.05.17.08.17.08,0,0-.06-.03-.17-.07-.11-.04-.26-.11-.44-.2-.36-.17-.84-.43-1.28-.73-.45-.3-.87-.64-1.17-.91-.3-.27-.49-.47-.49-.47-.04-.04-.04-.1,0-.14.04-.04.1-.04.14,0,0,0,0,0,0,0"/>
    <path class="cls-1" d="m31.45,13.62c-.33-.57-.94-.95-1.64-.95-.64,0-1.2.32-1.55.8-.11.13-.3.15-.43.04-.13-.11-.15-.3-.04-.43.4-.45,1-.74,1.65-.74.9,0,1.67.52,2,1.27"/>
    <path class="cls-1" d="m29.4,17.51c-.67-.02-1.54-.35-2.35-.95-.68-.5-1.19-1.1-1.46-1.66-.06-.1-.02-.22.07-.28.1-.06.23-.03.28.07.29.59.74,1.24,1.39,1.78.68.56,1.41.91,2.07,1.03"/>
    <path class="cls-1" d="m28.51,19.35c-1.22-.08-2.61-.71-3.68-1.81-.51-.52-.89-1.07-1.15-1.62-.05-.1-.02-.22.08-.27.1-.05.23-.02.27.08.32.67.71,1.38,1.36,2.03.93.93,2.06,1.48,3.11,1.61"/>
    <path class="cls-1" d="m21.67,16.59c.1-.04.22.02.26.13.52,1.29.8,1.82,1.79,2.87,1.34,1.42,3.28,1.93,4.36,1.95-.91.08-3.17-.35-4.73-1.97-.88-.91-1.52-1.88-1.8-2.72-.04-.11.02-.22.12-.26"/>
    <path class="cls-1" d="m28.81,15.02c.26.17.65.34,1.17.36,1.09.03,1.47-.84,1.52-1.17.02.25-.31,1.45-1.66,1.46-.52,0-.92-.11-1.21-.29-.1-.05-.14-.17-.09-.27.05-.1.18-.15.27-.09"/>
    <path class="cls-1" d="m31.54,15.39c-.12,0-.22.1-.22.22s.1.22.22.22.22-.1.22-.22-.1-.22-.22-.22"/>
    <path class="cls-1" d="m31.94,14.57c-.1,0-.18.08-.18.18s.08.18.18.18.18-.08.18-.18-.08-.18-.18-.18"/>
    <path class="cls-1" d="m31.77,14.01c0-.07.06-.13.13-.13s.13.06.13.13-.06.13-.13.13-.13-.06-.13-.13"/>
    <path class="cls-1" d="m31.58,16.64c0-.08.06-.15.14-.15.08,0,.15.06.15.14,0,.08-.06.15-.14.15-.08,0-.15-.06-.15-.14"/>
    <path class="cls-1" d="m31.96,16.13c0-.08.06-.15.14-.15.08,0,.15.06.15.14,0,.08-.06.15-.14.15-.08,0-.15-.06-.15-.14"/>
    <path class="cls-1" d="m31.19,17.14c0-.08.06-.15.14-.15.08,0,.14.06.15.14,0,.08-.06.15-.14.15-.08,0-.15-.06-.15-.14"/>
    <path class="cls-1" d="m32.3,15.63c0-.08.06-.15.14-.15.08,0,.14.06.15.14,0,.08-.06.15-.14.15-.08,0-.15-.06-.15-.14"/>
    <path class="cls-1" d="m32.56,15.18c0-.08.06-.15.14-.15.08,0,.15.06.15.14,0,.08-.06.15-.14.15-.08,0-.15-.06-.15-.14"/>
  </g>
  <g>
    <path class="cls-1" d="m105.35,14.92c.35.72.51,1.54.51,2.47v9.8h-1.89v-9.6c0-2.08-.88-3.25-2.61-3.25s-2.63,1.15-2.63,3.19v5.84h-1.89v-5.84c0-2.04-.86-3.19-2.57-3.19s-2.67,1.15-2.67,3.27v9.58h-1.89v-9.8c0-1.83.74-3.35,2.06-4.17.66-.41,1.44-.62,2.32-.62,1.71,0,3.14.84,3.7,2.47.64-1.64,1.97-2.47,3.76-2.47s3.12.86,3.8,2.32Z"/>
    <path class="cls-1" d="m109.66,24.99c-.45-.76-.68-1.6-.68-2.53v-5.59c0-1.62.82-2.9,2.24-3.58.7-.33,1.5-.49,2.38-.49h5.06v1.67h-4.81c-1.89,0-3.02.9-3.02,2.63v2.3c.8-1.23,2.06-1.85,3.8-1.85,1.87,0,3.49.9,4.4,2.38.45.76.68,1.6.68,2.53,0,1.87-.97,3.45-2.61,4.3-.82.43-1.75.64-2.79.64-2.06,0-3.74-.9-4.65-2.4Zm8.12-2.55c0-1.91-1.42-3.27-3.47-3.27s-3.47,1.32-3.47,3.27,1.36,3.27,3.47,3.27,3.47-1.32,3.47-3.27Z"/>
    <path class="cls-1" d="m131.36,27.19c-6,0-9.33-2.49-9.33-7.85v-1.95c0-1.83.72-3.35,2.01-4.17.64-.41,1.4-.62,2.24-.62,1.62,0,3.04.84,3.6,2.47.6-1.62,1.93-2.47,3.47-2.47s2.9.84,3.41,2.47c.64-1.64,1.95-2.47,3.66-2.47,2.57,0,4.17,1.93,4.17,4.79v3.76h-1.85v-3.62c0-2.06-.88-3.25-2.51-3.25s-2.55,1.15-2.55,3.19v3.23h-1.87v-3.23c0-2.04-.92-3.19-2.51-3.19s-2.51,1.15-2.51,3.19v3.23h-1.87v-3.23c0-2.04-.86-3.19-2.49-3.19s-2.55,1.19-2.55,3.27v1.54c0,2.94.95,4.77,3.19,5.67,1.11.45,2.59.68,4.44.68h8.71v1.75h-8.88Z"/>
    <path class="cls-1" d="m147.51,24.79c-.45-.84-.68-1.83-.68-2.96v-.97h1.85v.8c0,2.57,1.36,3.99,3.49,3.99s3.51-1.29,3.51-3.49c0-1.29-.47-2.3-1.05-3.06-.31-.37-.7-.8-1.21-1.32-.99-1.01-1.52-1.6-1.91-2.59-.21-.49-.31-1.05-.31-1.69v-.7h1.87v.55c0,.97.39,1.75.9,2.32.25.31.6.68,1.03,1.11,1.13,1.09,1.75,1.79,2.24,3.08.25.64.37,1.4.37,2.26,0,2.08-.99,3.72-2.63,4.6-.82.43-1.77.66-2.82.66-2.12,0-3.78-.92-4.67-2.61Z"/>
    <path class="cls-1" d="m160.56,18.03c0-2.22.92-3.88,2.49-4.77.76-.43,1.64-.66,2.65-.66,1.97,0,3.6.9,4.5,2.53.43.82.66,1.79.66,2.9v9.17h-1.85v-9.04c0-2.49-1.32-3.8-3.31-3.8s-3.29,1.36-3.29,3.8v9.04h-1.85v-9.17Z"/>
    <path class="cls-1" d="m174.68,24.99c-.45-.76-.68-1.6-.68-2.53v-5.59c0-1.62.82-2.9,2.24-3.58.7-.33,1.5-.49,2.38-.49h5.06v1.67h-4.81c-1.89,0-3.02.9-3.02,2.63v2.3c.8-1.23,2.06-1.85,3.8-1.85,1.87,0,3.49.9,4.4,2.38.45.76.68,1.6.68,2.53,0,1.87-.97,3.45-2.61,4.3-.82.43-1.75.64-2.79.64-2.06,0-3.74-.9-4.65-2.4Zm8.12-2.55c0-1.91-1.42-3.27-3.47-3.27s-3.47,1.32-3.47,3.27,1.36,3.27,3.47,3.27,3.47-1.32,3.47-3.27Z"/>
    <path class="cls-1" d="m193.05,24.99c-.45-.74-.68-1.58-.68-2.53,0-2.71,2.01-4.58,5.08-4.89,1.42-.16,2.38-.62,2.38-1.69s-.95-1.77-2.18-1.77-2.2.66-2.2,1.89v.31h-1.81v-.41c0-1.29.8-2.34,2.03-2.9.6-.27,1.25-.41,1.97-.41,1.54,0,2.8.64,3.47,1.56.33.47.49.97.49,1.48,0,1.25-.64,2.01-1.95,2.49,2.28.56,3.49,2.26,3.49,4.34,0,1.87-.97,3.45-2.59,4.3-.82.43-1.77.64-2.82.64-2.12,0-3.8-.9-4.71-2.4Zm8.18-2.55c0-1.95-1.42-3.27-3.47-3.27s-3.45,1.32-3.45,3.27,1.4,3.27,3.45,3.27,3.47-1.32,3.47-3.27Z"/>
    <path class="cls-1" d="m206.06,24.79c-.45-.84-.68-1.83-.68-2.96v-.97h1.85v.8c0,2.57,1.36,3.99,3.49,3.99s3.51-1.29,3.51-3.49c0-1.29-.47-2.3-1.05-3.06-.31-.37-.7-.8-1.21-1.32-.99-1.01-1.52-1.6-1.91-2.59-.21-.49-.31-1.05-.31-1.69v-.7h1.87v.55c0,.97.39,1.75.9,2.32.25.31.6.68,1.03,1.11,1.13,1.09,1.75,1.79,2.24,3.08.25.64.37,1.4.37,2.26,0,2.08-.99,3.72-2.63,4.6-.82.43-1.77.66-2.82.66-2.12,0-3.78-.92-4.67-2.61Z"/>
    <path class="cls-1" d="m219.4,24.99c-.45-.76-.68-1.6-.68-2.53v-5.59c0-1.62.82-2.9,2.24-3.58.7-.33,1.5-.49,2.38-.49h5.06v1.67h-4.81c-1.89,0-3.02.9-3.02,2.63v2.3c.8-1.23,2.06-1.85,3.8-1.85,1.87,0,3.49.9,4.4,2.38.45.76.68,1.6.68,2.53,0,1.87-.97,3.45-2.61,4.3-.82.43-1.75.64-2.8.64-2.05,0-3.74-.9-4.64-2.4Zm8.12-2.55c0-1.91-1.42-3.27-3.47-3.27s-3.47,1.32-3.47,3.27,1.36,3.27,3.47,3.27,3.47-1.32,3.47-3.27Z"/>
    <path class="cls-1" d="m232.66,25.08c-.45-.74-.68-1.58-.68-2.55v-.68h1.85v.62c0,1.95,1.38,3.19,3.62,3.19s3.6-1.01,3.6-2.63-1.15-2.36-2.98-2.36h-1.29v-1.71h1.42c1.67,0,2.65-.66,2.65-2.12s-1.38-2.49-3.41-2.49-3.49,1.15-3.49,2.94v.45h-1.85v-.49c0-1.79.97-3.25,2.61-4.05.8-.39,1.73-.6,2.75-.6,2.03,0,3.72.78,4.64,2.08.45.64.68,1.36.68,2.12,0,1.5-.86,2.57-2.36,3,1.58.31,2.57,1.5,2.57,3.29,0,1.66-.95,3.02-2.63,3.76-.84.37-1.81.55-2.9.55-2.22,0-3.91-.84-4.79-2.32Z"/>
    <path class="cls-1" d="m245.89,24.79c-.45-.84-.68-1.83-.68-2.96v-.97h1.85v.8c0,2.57,1.36,3.99,3.49,3.99s3.51-1.29,3.51-3.49c0-1.29-.47-2.3-1.05-3.06-.31-.37-.7-.8-1.21-1.32-.99-1.01-1.52-1.6-1.91-2.59-.21-.49-.31-1.05-.31-1.69v-.7h1.87v.55c0,.97.39,1.75.9,2.32.25.31.6.68,1.03,1.11,1.13,1.09,1.75,1.79,2.24,3.08.25.64.37,1.4.37,2.26,0,2.08-.99,3.72-2.63,4.6-.82.43-1.77.66-2.82.66-2.12,0-3.78-.92-4.67-2.61Z"/>
    <path class="cls-1" d="m266.65,27.19c-3.02,0-5.67-1.09-7.17-3.31-.76-1.09-1.13-2.45-1.13-4.05v-2.45c0-1.91.74-3.39,1.99-4.19.64-.39,1.36-.6,2.2-.6,1.54,0,3,.88,3.56,2.47.66-1.62,2.12-2.47,4.03-2.47s3.33.88,4.11,2.4c.39.76.58,1.64.58,2.63,0,2.04-.84,3.58-2.3,4.4-.74.41-1.6.62-2.57.62-1.95,0-3.43-.84-4.23-2.34-.39-.74-.6-1.6-.6-2.57v-.45c0-1.87-.92-2.94-2.38-2.94-1.62,0-2.53,1.13-2.53,3.25v1.93c0,3.84,2.55,5.92,6.6,5.92h4.99v1.75h-5.14Zm6.29-9.56c0-2.08-1.13-3.33-3.02-3.33s-2.96,1.25-2.96,3.33,1.13,3.31,2.96,3.31,3.02-1.23,3.02-3.31Z"/>
    <path class="cls-1" d="m278.01,24.95c-.43-.76-.66-1.64-.66-2.63v-1.01h1.85v.97c0,2.03,1.34,3.37,3.39,3.37s3.41-1.34,3.41-3.72v-3.78c0-2.55-1.34-3.8-3.45-3.8-1.95,0-3.25,1.21-3.25,3.12v.58h-1.85v-.6c0-1.91.92-3.43,2.49-4.25.76-.39,1.64-.6,2.61-.6,2.08,0,3.72.84,4.62,2.47.45.8.68,1.79.68,2.92v3.97c0,2.2-.92,3.88-2.51,4.77-.8.45-1.71.68-2.75.68-2.06,0-3.7-.9-4.58-2.45Z"/>
    <path class="cls-1" d="m296.96,17.66c2.55.47,4.23,2.36,4.23,4.81,0,1.87-.97,3.45-2.59,4.3-.82.43-1.77.64-2.82.64-2.12,0-3.8-.9-4.71-2.4-.45-.74-.68-1.58-.68-2.53,0-1.73.82-3.19,2.24-4.09.72-.43,1.54-.7,2.47-.78v-1.09c0-.74-.27-1.07-.82-1.62-.66-.64-.99-1.07-.99-2.08h1.85c0,.58.23.86.78,1.42.66.64,1.03,1.11,1.03,2.12v1.32Zm2.3,4.79c0-1.95-1.42-3.29-3.47-3.29s-3.45,1.34-3.45,3.29,1.4,3.27,3.45,3.27,3.47-1.32,3.47-3.27Z"/>
    <path class="cls-1" d="m304.09,24.79c-.45-.84-.68-1.83-.68-2.96v-.97h1.85v.8c0,2.57,1.36,3.99,3.49,3.99s3.51-1.29,3.51-3.49c0-1.29-.47-2.3-1.05-3.06-.31-.37-.7-.8-1.21-1.32-.99-1.01-1.52-1.6-1.91-2.59-.21-.49-.31-1.05-.31-1.69v-.7h1.87v.55c0,.97.39,1.75.9,2.32.25.31.6.68,1.03,1.11,1.13,1.09,1.75,1.79,2.24,3.08.25.64.37,1.4.37,2.26,0,2.08-.99,3.72-2.63,4.6-.82.43-1.77.66-2.82.66-2.12,0-3.78-.92-4.67-2.61Z"/>
  </g>
</svg>